<svg xmlns="http://www.w3.org/2000/svg" viewBox="0 0 1500 792.45"><defs><style>.cls-1{fill:#066;}.cls-2{fill:#f63;}.cls-3{fill:#f93;}</style></defs><g id="Lag_2" data-name="Lag 2"><g id="Lag_1-2" data-name="Lag 1"><path class="cls-1" d="M225.13,655.78,549.38,91.58,525,49.22c-37.36-65-131.15-65-168.51,0L13.07,646.85c-37.23,64.79,9.53,145.6,84.25,145.6H268.45C219.37,769.72,195.33,707.64,225.13,655.78Z"/><path class="cls-2" d="M1402.68,792H715.75c-74.72,0-121.49-80.81-84.26-145.59L975,48.75c37.36-65,131.15-65,168.51,0l343.46,597.64C1524.16,711.17,1477.4,792,1402.68,792Z"/><path class="cls-3" d="M530.52,655.78,854.78,91.58,830.43,49.22c-37.36-65-131.14-65-168.5,0L318.46,646.85c-37.23,64.79,9.53,145.6,84.25,145.6H573.84C524.76,769.72,500.72,707.64,530.52,655.78Z"/></g></g></svg>