<svg xmlns="http://www.w3.org/2000/svg" viewBox="0 0 717.27 380.85"><g id="Lag_2" data-name="Lag 2"><g id="Lag_1-2" data-name="Lag 1"><path d="M107.65,315.5l155-269.8L251.06,25.45c-17.86-31.09-62.71-31.09-80.57,0L6.25,311.23c-17.81,31,4.56,69.62,40.29,69.62h81.83C104.9,370,93.4,340.29,107.65,315.5Z"/><path d="M670.73,378.71H342.26c-35.73,0-58.1-38.64-40.29-69.62L466.21,23.31c17.86-31.08,62.71-31.08,80.57,0L711,309.09C728.83,340.07,706.46,378.71,670.73,378.71Z"/><path d="M253.68,315.5,408.74,45.7,397.1,25.45c-17.87-31.09-62.71-31.09-80.58,0L152.28,311.23c-17.8,31,4.56,69.62,40.29,69.62H274.4C250.93,370,239.43,340.29,253.68,315.5Z"/></g></g></svg>