<svg xmlns="http://www.w3.org/2000/svg" viewBox="0 0 1500 792.66"><defs><style>.cls-1{fill:#fff;}</style></defs><g id="Lag_2" data-name="Lag 2"><g id="Lag_1-2" data-name="Lag 1"><path class="cls-1" d="M225.13,656,549.38,91.79,525,49.43c-37.36-65-131.15-65-168.51,0L13.07,647.07c-37.23,64.78,9.53,145.59,84.25,145.59H268.45C219.37,769.93,195.33,707.85,225.13,656Z"/><path class="cls-1" d="M1402.68,792H715.75c-74.72,0-121.49-80.81-84.26-145.59L975,48.75c37.36-65,131.15-65,168.51,0l343.46,597.64C1524.16,711.17,1477.4,792,1402.68,792Z"/><path class="cls-1" d="M530.52,656,854.78,91.79,830.43,49.43c-37.36-65-131.14-65-168.5,0L318.46,647.07c-37.23,64.78,9.53,145.59,84.25,145.59H573.84C524.76,769.93,500.72,707.85,530.52,656Z"/></g></g></svg>