<svg xmlns="http://www.w3.org/2000/svg" viewBox="0 0 600.25 600.25"><defs><style>.cls-1{fill:#fff;}</style></defs><g id="Lag_2" data-name="Lag 2"><g id="Lag_1-2" data-name="Lag 1"><rect width="600.25" height="600.25" rx="138.4"/><path class="cls-1" d="M118.53,383.49l112.07-195-8.41-14.64c-12.92-22.47-45.33-22.47-58.25,0L45.23,380.41c-12.87,22.39,3.29,50.32,29.12,50.32H133.5A33.63,33.63,0,0,1,118.53,383.49Z"/><path class="cls-1" d="M525.53,429.19H288.1c-25.83,0-42-27.93-29.12-50.33L377.69,172.3c12.92-22.47,45.33-22.47,58.25,0L554.65,378.86C567.52,401.26,551.35,429.19,525.53,429.19Z"/><path class="cls-1" d="M224.08,383.49l112.07-195-8.41-14.64c-12.91-22.47-45.33-22.47-58.24,0L150.78,380.41c-12.86,22.39,3.3,50.32,29.12,50.32h59.15A33.63,33.63,0,0,1,224.08,383.49Z"/></g></g></svg>