<svg xmlns="http://www.w3.org/2000/svg" viewBox="0 0 1800 555.03"><defs><style>.cls-1{font-size:171.55px;font-family:TitilliumWeb-Bold, Titillium Web;font-weight:700;}.cls-1,.cls-5{fill:#fff;}.cls-2{letter-spacing:-0.01em;}.cls-3{letter-spacing:-0.01em;}.cls-4{font-family:TitilliumWeb-Regular, Titillium Web;font-weight:400;}.cls-6{fill:#666;}.cls-7{fill:#b3b3b3;}</style></defs><g id="Lag_2" data-name="Lag 2"><g id="Lag_1-2" data-name="Lag 1"><text class="cls-1" transform="translate(0 501.68)"><tspan class="cls-2">M</tspan><tspan x="146.16" y="0">edia </tspan><tspan class="cls-3" x="497.5" y="0">C</tspan><tspan x="589.28" y="0">ollege </tspan><tspan class="cls-4" x="1077.52" y="0">Denmark</tspan></text><path class="cls-5" d="M640,271.22,774.07,38,764,20.44c-15.45-26.88-54.22-26.88-69.67,0l-142,247.09c-15.39,26.78,3.94,60.19,34.84,60.19h70.75C637.63,318.33,627.69,292.66,640,271.22Z"/><path class="cls-6" d="M1126.87,327.44h-284C812,327.44,792.63,294,808,267.25L950,20.16c15.44-26.88,54.22-26.88,69.66,0l142,247.09C1177.09,294,1157.76,327.44,1126.87,327.44Z"/><path class="cls-7" d="M766.27,271.22,900.34,38,890.27,20.44c-15.45-26.88-54.22-26.88-69.67,0l-142,247.09c-15.4,26.78,3.94,60.19,34.83,60.19h70.76C763.89,318.33,754,292.66,766.27,271.22Z"/></g></g></svg>