<svg xmlns="http://www.w3.org/2000/svg" viewBox="0 0 1800 557.79"><defs><style>.cls-1{fill:#b3b3b3;}.cls-2{fill:#666;}.cls-3{font-size:171.55px;font-family:TitilliumWeb-Bold, Titillium Web;font-weight:700;}.cls-4{letter-spacing:-0.01em;}.cls-5{letter-spacing:-0.01em;}.cls-6{font-family:TitilliumWeb-Regular, Titillium Web;font-weight:400;}</style></defs><g id="Lag_2" data-name="Lag 2"><g id="Lag_1-2" data-name="Lag 1"><path d="M639.16,271.22,773.23,38,763.16,20.44c-15.45-26.88-54.22-26.88-69.67,0l-142,247.09c-15.4,26.78,3.94,60.19,34.83,60.19h70.76C636.78,318.33,626.84,292.66,639.16,271.22Z"/><path class="cls-1" d="M1126,327.44H842c-30.89,0-50.23-33.41-34.84-60.19l142-247.09c15.45-26.88,54.22-26.88,69.67,0l142,247.09C1176.25,294,1156.91,327.44,1126,327.44Z"/><path class="cls-2" d="M765.43,271.22,899.49,38,889.42,20.44C874-6.44,835.2-6.44,819.76,20.44l-142,247.09c-15.39,26.78,3.94,60.19,34.84,60.19h70.75C763,318.33,753.11,292.66,765.43,271.22Z"/><text class="cls-3" transform="translate(0 504.43)"><tspan class="cls-4">M</tspan><tspan x="146.16" y="0">edia </tspan><tspan class="cls-5" x="497.5" y="0">C</tspan><tspan x="589.28" y="0">ollege </tspan><tspan class="cls-6" x="1077.52" y="0">Denmark</tspan></text></g></g></svg>