<svg xmlns="http://www.w3.org/2000/svg" viewBox="0 0 1150 410.57"><defs><style>.cls-1{font-size:109.6px;font-family:TitilliumWeb-Bold, Titillium Web;font-weight:700;}.cls-2{letter-spacing:-0.01em;}.cls-3{letter-spacing:-0.01em;}.cls-4{font-family:TitilliumWeb-Regular, Titillium Web;font-weight:400;}.cls-5{font-size:38.78px;font-family:TitilliumWeb-ExtraLight, Titillium Web;font-weight:200;}.cls-6{letter-spacing:-0.3em;}.cls-7{letter-spacing:-0.02em;}.cls-8{letter-spacing:-0.02em;}.cls-9{letter-spacing:-0.02em;}.cls-10{letter-spacing:-0.02em;}.cls-11{letter-spacing:-0.01em;}</style></defs><g id="Lag_2" data-name="Lag 2"><g id="Lag_1-2" data-name="Lag 1"><text class="cls-1" transform="translate(0 321.52)"><tspan class="cls-2">M</tspan><tspan x="93.38" y="0">edia </tspan><tspan class="cls-3" x="317.85" y="0">C</tspan><tspan x="376.49" y="0">ollege </tspan><tspan class="cls-4" x="688.42" y="0">Denmark</tspan></text><text class="cls-5" transform="translate(244.77 400.07)">/<tspan class="cls-6" x="14.58" y="0"> </tspan><tspan x="11.48" y="0">/ Film- og t</tspan><tspan class="cls-7" x="190.57" y="0">v</tspan><tspan x="208.18" y="0">-p</tspan><tspan class="cls-8" x="245.96" y="0">r</tspan><tspan x="258.02" y="0">oduktionstekni</tspan><tspan class="cls-7" x="493.82" y="0">k</tspan><tspan x="510.84" y="0">er /</tspan><tspan class="cls-6" x="566.14" y="0"> </tspan><tspan x="563.04" y="0">/ </tspan></text><text class="cls-5" transform="translate(837.87 400.21)"><tspan class="cls-9">W</tspan><tspan x="32.38" y="0">ebudvikler</tspan></text><text class="cls-5" transform="translate(91.71 400.21)"><tspan class="cls-10">F</tspan><tspan class="cls-11" x="19.59" y="0">o</tspan><tspan x="39.75" y="0">tograf</tspan></text><path d="M408.9,174.28l85.65-149-6.43-11.19a25.67,25.67,0,0,0-44.51,0L352.88,171.92a25.67,25.67,0,0,0,22.26,38.46h45.2A25.69,25.69,0,0,1,408.9,174.28Z"/><path d="M720,209.2H538.49a25.67,25.67,0,0,1-22.25-38.46L607,12.88a25.67,25.67,0,0,1,44.51,0L742.2,170.74A25.67,25.67,0,0,1,720,209.2Z"/><path d="M489.57,174.28l85.65-149-6.43-11.19a25.67,25.67,0,0,0-44.51,0L433.55,171.92a25.67,25.67,0,0,0,22.26,38.46H501A25.69,25.69,0,0,1,489.57,174.28Z"/></g></g></svg>