<svg xmlns="http://www.w3.org/2000/svg" viewBox="0 0 1800 640.85"><defs><style>.cls-1{font-size:171.55px;font-family:TitilliumWeb-Bold, Titillium Web;font-weight:700;}.cls-2{letter-spacing:-0.01em;}.cls-3{letter-spacing:-0.01em;}.cls-4{font-family:TitilliumWeb-Regular, Titillium Web;font-weight:400;}.cls-5{font-size:60.7px;font-family:TitilliumWeb-ExtraLight, Titillium Web;font-weight:200;}.cls-6{letter-spacing:-0.3em;}.cls-7{letter-spacing:-0.02em;}.cls-8{letter-spacing:-0.02em;}.cls-9{letter-spacing:-0.02em;}.cls-10{letter-spacing:-0.02em;}.cls-11{letter-spacing:-0.01em;}.cls-12{fill:#066;}.cls-13{fill:#f63;}.cls-14{fill:#f93;}</style></defs><g id="Lag_2" data-name="Lag 2"><g id="Lag_1-2" data-name="Lag 1"><text class="cls-1" transform="translate(0 501.46)"><tspan class="cls-2">M</tspan><tspan x="146.16" y="0">edia </tspan><tspan class="cls-3" x="497.5" y="0">C</tspan><tspan x="589.28" y="0">ollege </tspan><tspan class="cls-4" x="1077.52" y="0">Denmark</tspan></text><text class="cls-5" transform="translate(383.12 624.42)">/<tspan class="cls-6" x="22.82" y="0"> </tspan><tspan x="17.97" y="0">/ Film- og t</tspan><tspan class="cls-7" x="298.29" y="0">v</tspan><tspan x="325.85" y="0">-p</tspan><tspan class="cls-8" x="384.97" y="0">r</tspan><tspan x="403.85" y="0">oduktionstekni</tspan><tspan class="cls-7" x="772.93" y="0">k</tspan><tspan x="799.57" y="0">er /</tspan><tspan class="cls-6" x="886.14" y="0"> </tspan><tspan x="881.28" y="0">/ </tspan></text><text class="cls-5" transform="translate(1311.44 624.64)"><tspan class="cls-9">W</tspan><tspan x="50.69" y="0">ebudvikler</tspan></text><text class="cls-5" transform="translate(143.55 624.64)"><tspan class="cls-10">F</tspan><tspan class="cls-11" x="30.66" y="0">o</tspan><tspan x="62.22" y="0">tograf</tspan></text><path class="cls-12" d="M641.86,270.06,775.35,37.78l-10-17.43c-15.38-26.77-54-26.77-69.38,0l-141.4,246c-15.33,26.67,3.93,59.94,34.69,59.94h70.45C639.48,317,629.59,291.41,641.86,270.06Z"/><path class="cls-13" d="M1126.65,326.05H843.84c-30.76,0-50-33.27-34.69-59.94l141.41-246c15.38-26.76,54-26.76,69.37,0l141.4,246C1176.66,292.78,1157.41,326.05,1126.65,326.05Z"/><path class="cls-14" d="M767.58,270.06,901.08,37.78l-10-17.43c-15.38-26.77-54-26.77-69.37,0l-141.4,246C665,293.06,684.2,326.33,715,326.33h70.45C765.21,317,755.31,291.41,767.58,270.06Z"/></g></g></svg>