<svg xmlns="http://www.w3.org/2000/svg" viewBox="0 0 1725.01 614.35"><defs><style>.cls-1{font-size:164.41px;font-family:TitilliumWeb-Bold, Titillium Web;font-weight:700;}.cls-1,.cls-13,.cls-5{fill:#fff;}.cls-2{letter-spacing:-0.01em;}.cls-3{letter-spacing:-0.01em;}.cls-4{font-family:TitilliumWeb-Regular, Titillium Web;font-weight:400;}.cls-5{font-size:58.17px;font-family:TitilliumWeb-ExtraLight, Titillium Web;font-weight:200;}.cls-6{letter-spacing:-0.3em;}.cls-7{letter-spacing:-0.02em;}.cls-8{letter-spacing:-0.02em;}.cls-9{letter-spacing:-0.3em;}.cls-10{letter-spacing:-0.02em;}.cls-11{letter-spacing:-0.02em;}.cls-12{letter-spacing:-0.01em;}.cls-14{fill:#666;}.cls-15{fill:#b3b3b3;}</style></defs><g id="Lag_2" data-name="Lag 2"><g id="Lag_1-2" data-name="Lag 1"><text class="cls-1" transform="translate(0 480.78)"><tspan class="cls-2">M</tspan><tspan x="140.07" y="0">edia </tspan><tspan class="cls-3" x="476.77" y="0">C</tspan><tspan x="564.73" y="0">ollege </tspan><tspan class="cls-4" x="1032.62" y="0">Denmark</tspan></text><text class="cls-5" transform="translate(367.15 598.61)">/<tspan class="cls-6" x="21.87" y="0"> </tspan><tspan x="17.22" y="0">/ Film- og t</tspan><tspan class="cls-7" x="285.86" y="0">v</tspan><tspan x="312.27" y="0">-p</tspan><tspan class="cls-8" x="368.93" y="0">r</tspan><tspan x="387.03" y="0">oduktionstekni</tspan><tspan class="cls-7" x="740.72" y="0">k</tspan><tspan x="766.26" y="0">er /</tspan><tspan class="cls-9" x="849.22" y="0"> </tspan><tspan x="844.56" y="0">/ </tspan></text><text class="cls-5" transform="translate(1256.8 598.82)"><tspan class="cls-10">W</tspan><tspan x="48.58" y="0">ebudvikler</tspan></text><text class="cls-5" transform="translate(137.57 598.82)"><tspan class="cls-11">F</tspan><tspan class="cls-12" x="29.38" y="0">o</tspan><tspan x="59.63" y="0">tograf</tspan></text><path class="cls-13" d="M613.35,259.92,741.82,36.37l-9.64-16.78c-14.81-25.76-52-25.76-66.77,0L529.32,256.38c-14.75,25.67,3.78,57.69,33.39,57.69h67.8C611.06,305.06,601.54,280.47,613.35,259.92Z"/><path class="cls-14" d="M1079.92,313.8H807.74c-29.61,0-48.14-32-33.38-57.69L910.45,19.32c14.8-25.76,52-25.76,66.76,0L1113.3,256.11C1128.05,281.78,1109.52,313.8,1079.92,313.8Z"/><path class="cls-15" d="M734.35,259.92,862.83,36.37l-9.65-16.78c-14.8-25.76-52-25.76-66.76,0L650.33,256.38c-14.76,25.67,3.77,57.69,33.38,57.69h67.8C732.07,305.06,722.54,280.47,734.35,259.92Z"/></g></g></svg>