<svg xmlns="http://www.w3.org/2000/svg" viewBox="0 0 1725.01 616.99"><defs><style>.cls-1{fill:#b3b3b3;}.cls-2{fill:#666;}.cls-3{font-size:164.41px;font-family:TitilliumWeb-Bold, Titillium Web;font-weight:700;}.cls-4{letter-spacing:-0.01em;}.cls-5{letter-spacing:-0.01em;}.cls-6{font-family:TitilliumWeb-Regular, Titillium Web;font-weight:400;}.cls-7{font-size:58.17px;font-family:TitilliumWeb-ExtraLight, Titillium Web;font-weight:200;}.cls-8{letter-spacing:-0.3em;}.cls-9{letter-spacing:-0.02em;}.cls-10{letter-spacing:-0.02em;}.cls-11{letter-spacing:-0.3em;}.cls-12{letter-spacing:-0.02em;}.cls-13{letter-spacing:-0.02em;}.cls-14{letter-spacing:-0.01em;}</style></defs><g id="Lag_2" data-name="Lag 2"><g id="Lag_1-2" data-name="Lag 1"><path d="M612.53,259.92,741,36.37l-9.64-16.78c-14.81-25.76-52-25.76-66.77,0L528.51,256.38c-14.75,25.67,3.78,57.69,33.38,57.69H629.7C610.25,305.06,600.73,280.47,612.53,259.92Z"/><path class="cls-1" d="M1079.11,313.8H806.93c-29.61,0-48.14-32-33.38-57.69L909.63,19.32c14.81-25.76,52-25.76,66.77,0l136.09,236.79C1127.24,281.78,1108.71,313.8,1079.11,313.8Z"/><path class="cls-2" d="M733.54,259.92,862,36.37l-9.65-16.78c-14.8-25.76-52-25.76-66.77,0L649.51,256.38c-14.75,25.67,3.78,57.69,33.39,57.69h67.8C731.25,305.06,721.73,280.47,733.54,259.92Z"/><text class="cls-3" transform="translate(0 483.42)"><tspan class="cls-4">M</tspan><tspan x="140.07" y="0">edia </tspan><tspan class="cls-5" x="476.77" y="0">C</tspan><tspan x="564.73" y="0">ollege </tspan><tspan class="cls-6" x="1032.62" y="0">Denmark</tspan></text><text class="cls-7" transform="translate(367.15 601.25)">/<tspan class="cls-8" x="21.87" y="0"> </tspan><tspan x="17.22" y="0">/ Film- og t</tspan><tspan class="cls-9" x="285.86" y="0">v</tspan><tspan x="312.27" y="0">-p</tspan><tspan class="cls-10" x="368.93" y="0">r</tspan><tspan x="387.03" y="0">oduktionstekni</tspan><tspan class="cls-9" x="740.72" y="0">k</tspan><tspan x="766.26" y="0">er /</tspan><tspan class="cls-11" x="849.22" y="0"> </tspan><tspan x="844.56" y="0">/ </tspan></text><text class="cls-7" transform="translate(1256.8 601.46)"><tspan class="cls-12">W</tspan><tspan x="48.58" y="0">ebudvikler</tspan></text><text class="cls-7" transform="translate(137.57 601.46)"><tspan class="cls-13">F</tspan><tspan class="cls-14" x="29.38" y="0">o</tspan><tspan x="59.63" y="0">tograf</tspan></text></g></g></svg>